<?xml version="1.0" encoding="UTF-8"?>
<!DOCTYPE svg PUBLIC "-//W3C//DTD SVG 1.1//EN" "http://www.w3.org/Graphics/SVG/1.1/DTD/svg11.dtd">
<!-- Creator: CorelDRAW 2019 (64-Bit) -->
<svg xmlns="http://www.w3.org/2000/svg" xml:space="preserve" width="48.6779mm" height="23.3898mm" version="1.1" style="shape-rendering:geometricPrecision; text-rendering:geometricPrecision; image-rendering:optimizeQuality; fill-rule:evenodd; clip-rule:evenodd"
viewBox="0 0 1708.69 821.03"
 xmlns:xlink="http://www.w3.org/1999/xlink">
 <defs>
  <style type="text/css">
   <![CDATA[
    .fil3 {fill:#2B2A29}
    .fil1 {fill:white}
    .fil0 {fill:#00ABD1}
    .fil2 {fill:#2B2A29;fill-rule:nonzero}
   ]]>
  </style>
 </defs>
 <g id="__x0023_Layer_x0020_1">
  <metadata id="CorelCorpID_0Corel-Layer"/>
  <g id="_2449388537152">
   <g>
    <path class="fil0" d="M410.51 -0c226.72,0 410.51,183.8 410.51,410.52 0,226.72 -183.79,410.51 -410.51,410.51 -226.72,0 -410.51,-183.79 -410.51,-410.51 0,-226.72 183.79,-410.52 410.51,-410.52z"/>
    <path class="fil1" d="M426.49 331.4l-9.18 19.57 0 45.66 65.55 0 -15.07 -65.23 -41.3 0zm-22.77 19.58l-9.18 -19.58 -40.77 0 -15.07 65.23 65.02 0 0 -45.65zm-15.41 -32.85l-21.09 -44.95 -10.39 44.95 31.48 0zm-106.05 -87.77l-30.51 87.77 91.2 0 14.96 -64.79 -10.77 -22.96 -64.88 -0.02zm-35.13 101.04l-22.68 65.23 100.36 0 15.06 -65.23 -92.75 0zm-27.29 78.5l-22.68 65.22 109.52 0 15.07 -65.22 -101.91 0zm298.12 78.49l23.84 103.21 122.57 0 -35.88 -103.21 -110.53 0zm-100.64 -13.27l50.87 0 18.55 -61.67 -0.82 -3.55 -68.61 0 0 65.22zm0 13.27l0 103.21 15.83 0 31.05 -103.21 -46.88 0zm-13.59 0l-46.88 0 31.05 103.21 15.83 0 0 -103.21zm-68.08 -78.49l-1.05 4.55 18.25 60.67 50.88 0 0 -65.22 -68.08 0zm-143.1 78.49l-35.88 103.21 123.11 0 23.83 -103.21 -111.07 0zm431.33 -13.27l-22.68 -65.22 -101.37 0 15.07 65.22 108.98 0zm-27.29 -78.49l-22.68 -65.23 -92.21 0 15.06 65.23 99.82 0zm-122.68 -166.24l-10.41 22.19 15.14 65.56 90.66 0 -30.52 -87.77 -64.88 0.02zm-207.4 -118.35c40.88,2.96 81.07,11.72 120.7,29.05l3.63 0.55 -0.34 -30.29 18.71 23.23 35.16 -41.92 -8.92 53.98 29.82 -0.93 -23.21 19.47 40.57 34.95 -52.94 -8.04 0.34 30.3 -18.71 -23.23 -34.64 40.78 8.4 -52.84 -29.82 0.92 25.09 -19.42c-91.31,-33.96 -204.18,-10.13 -246.69,59.85 -32.49,53.48 -54.47,114.82 -54.47,182.07 0,91.5 37.09,174.33 97.04,234.29 59.96,59.96 142.79,97.04 234.29,97.04 91.49,0 174.33,-37.09 234.29,-97.04 59.96,-59.96 97.05,-142.79 97.05,-234.29 0,-91.5 -37.09,-174.33 -97.05,-234.29 -59.95,-59.96 -142.79,-97.05 -234.29,-97.05 -51.61,0 -100.47,11.81 -144.02,32.86zm187.68 160.38l-21.45 45.71 32.01 0 -10.56 -45.71z"/>
   </g>
   <g>
    <path class="fil2" d="M1580.36 382.09l62.58 0 0 -146.47c0,-32.64 24.49,-43.98 46.25,-43.98 6.35,0 13.15,0.45 19.5,0.91l0 -59.86c-3.63,-0.45 -7.71,-0.91 -11.34,-0.91 -25.85,0 -43.53,15.42 -56.23,38.99l-0.91 0 0 -32.65 -59.86 0 0 243.95zm32.63 123.97l-0.38 0 -25.08 -89.11 -7.98 0 29.26 100.32 -3.04 10.45c-3.75,12.86 -7.41,15.58 -16.72,15.58 -2.28,0 -3.61,-0.19 -6.27,-0.38l0 6.46c2.47,0.19 4.94,0.38 7.41,0.38 11.59,0 18.34,-4.91 22.04,-18.62l30.78 -114.19 -7.98 0 -22.04 89.11zm-40.62 -89.11l-7.22 0 0 63.65c0,17.27 -8.55,31.54 -23.75,31.54 -12.35,0 -19.76,-6.08 -19.76,-23.75l0 -71.44 -7.22 0 0 74.86c0,18.8 11.02,26.79 25.08,26.79 13.49,0 21.85,-8.55 25.27,-17.29l0.38 0 0 15.01 7.22 0 0 -99.37zm-77.52 99.37l7.98 0 0 -9.73 -7.98 0 0 9.73zm-116.73 0l7.22 0 0 -65.93c0,-15.58 6.84,-29.26 22.42,-29.26 12.54,0 17.48,9.12 17.48,23.94l0 71.25 7.22 0 0 -65.93c0,-17.1 7.98,-29.26 22.8,-29.26 10.26,0 17.1,7.22 17.1,20.52l0 74.67 7.22 0 0 -76.37c0,-15.77 -7.98,-25.27 -23.75,-25.27 -15.58,0 -22.99,11.4 -24.32,18.62l-0.38 0c-1.33,-9.12 -6.08,-18.62 -21.47,-18.62 -12.35,0 -21.09,6.84 -23.94,17.1l-0.39 0 0 -14.82 -7.22 0 0 99.37zm-21.81 -49.59c0,28.5 -6.27,45.41 -25.27,45.41 -19,0 -25.27,-16.91 -25.27,-45.41 0,-28.69 6.27,-45.6 25.27,-45.6 19,0 25.27,16.91 25.27,45.6zm7.98 -0.19c0,-28.5 -6.46,-51.87 -32.68,-51.87 -27.36,0 -33.82,23.37 -33.82,51.87 0,28.69 6.46,52.06 32.68,52.06 27.36,0 33.82,-23.37 33.82,-52.06zm-81.28 17.29c0,7.41 -3.42,28.31 -21.66,28.31 -18.43,0 -25.27,-14.63 -25.27,-45.6 0,-28.5 6.84,-45.41 25.27,-45.41 17.1,0 21.09,18.24 21.09,24.32l7.98 0c0,-7.22 -4.75,-30.78 -28.88,-30.78 -23.37,0 -33.44,18.62 -33.44,51.49 0,29.83 6.46,52.44 32.11,52.44 25.65,0 30.77,-25.46 30.77,-34.77l-7.98 0zm-72.01 32.49l7.98 0 0 -9.73 -7.98 0 0 9.73zm-11.55 -71.44l0 -3.04c0,-12.16 -3.8,-27.17 -25.84,-27.17 -15.77,0 -27.17,9.12 -27.17,25.65 0,12.73 6.27,19.95 18.62,24.89l14.63 5.89c11.02,4.37 14.82,10.83 14.82,20.33 0,11.02 -6.08,20.71 -20.71,20.71 -16.53,0 -22.23,-10.26 -22.23,-24.32l0 -3.23 -7.22 0 0 2.66c0,11.59 1.9,31.35 29.45,31.35 15.77,0 28.69,-10.64 28.69,-27.36 0,-13.49 -6.08,-21.85 -18.05,-26.41l-15.2 -5.7c-9.88,-3.8 -14.82,-9.12 -14.82,-19.57 0,-13.11 8.74,-18.43 19.19,-18.43 16.34,0 18.62,11.97 18.62,20.9l0 2.85 7.22 0zm-61.14 21.28c0,-32.11 -7.6,-51.49 -30.97,-51.49 -22.42,0 -33.25,18.81 -33.25,49.21 0,33.82 6.46,54.72 32.11,54.72 22.42,0 30.78,-19.57 30.78,-34.77l-7.22 0c0,7.41 -3.42,28.31 -24.32,28.31 -23.18,0 -23.37,-30.02 -23.37,-45.98l56.24 0zm-56.24 -6.46c0,-12.92 2.85,-38.57 24.89,-38.57 20.52,0 23.37,20.52 23.37,38.57l-48.26 0zm-46.31 90.06c2.28,0.19 4.56,0.38 6.84,0.38 10.26,0 18.05,-4.94 18.05,-21.28l0 -111.91 -7.22 0 0 112.67c0,12.54 -6.46,14.06 -12.35,14.06 -1.71,0 -3.61,-0.19 -5.32,-0.38l0 6.46zm-6.61 -70.87c0,19.95 -8.17,33.25 -25.08,33.25 -12.54,0 -18.24,-8.36 -18.24,-21.28 0,-11.78 4.18,-18.62 15.77,-21.85l14.63 -3.99c7.41,-2.09 10.07,-2.66 12.54,-6.65l0.38 0 0 20.52zm7.22 -38c0,-14.25 -5.32,-26.22 -27.17,-26.22 -23.18,0 -28.12,17.1 -28.12,30.59l7.22 0c0,-30.78 40.85,-34.23 40.85,-2.28 0,8.36 -1.14,12.35 -9.69,14.63l-21.47 5.89c-14.06,3.8 -20.14,12.35 -20.14,27.36 0,15.39 7.6,27.74 24.89,27.74 13.3,0 23.18,-7.98 26.03,-18.24l0.38 0 0 6.27c0,7.79 5.51,10.83 8.55,10.83 3.23,0 6.08,-0.57 7.6,-1.71l0 -5.7c-1.33,0.76 -2.85,0.95 -4.56,0.95 -2.47,0 -4.37,-1.9 -4.37,-6.65l0 -63.46zm-76.53 75.43l7.22 0 0 -99.37 -7.22 0 0 99.37zm-34.92 0l26.98 -99.37 -7.98 0 -22.99 90.25 -0.38 0 -24.13 -90.25 -7.98 0 27.93 99.37 8.55 0zm282.47 -375.84l0 40.96 26.94 0 0 132.12c0,47.15 19.5,73 60.76,73 29.48,0 52.15,-13.15 61.67,-38.99l0.91 0c6.8,24.94 27.66,38.99 56.23,38.99 26.3,0 45.8,-9.07 61.67,-31.29l0.91 0 0 24.94 59.86 0 0 -243.95 -62.58 0 0 160.52c0,28.11 -12.7,41.72 -32.65,41.72 -17.68,0 -24.48,-11.33 -24.48,-31.74l0 -170.49 -62.58 0 0 160.52c0,28.11 -12.7,41.72 -32.65,41.72 -17.68,0 -24.49,-11.33 -24.49,-31.74l0 -125.32 24.97 0 0 -40.96 -24.97 0 0 -40.16 -62.57 0 0 40.16 -26.94 0zm-321.66 241.61l62.57 0 0 -160.52c0,-28.11 12.7,-41.72 32.65,-41.72 17.69,0 24.49,11.33 24.49,31.74l0 170.5 62.58 0 0 -160.52c0,-28.11 12.7,-41.72 32.65,-41.72 17.69,0 24.49,11.33 24.49,31.74l0 170.5 62.57 0 0 -177.3c0,-47.16 -19.5,-73 -60.76,-73 -29.47,0 -52.15,13.15 -61.67,38.99l-0.91 0c-6.8,-24.94 -27.66,-38.99 -56.23,-38.99 -26.31,0 -45.8,9.07 -61.67,31.29l-0.91 0 0 -24.94 -59.85 0 0 243.95z"/>
    <path class="fil3" d="M1131.02 580.2c19.4,0 36.96,7.86 49.67,20.58 12.71,12.71 20.58,30.28 20.58,49.67 0,19.4 -7.86,36.96 -20.58,49.68 -12.71,12.71 -30.28,20.57 -49.67,20.57 -19.4,0 -36.96,-7.86 -49.67,-20.57 -12.71,-12.71 -20.58,-30.28 -20.58,-49.68 0,-19.4 7.86,-36.96 20.58,-49.67 12.71,-12.71 30.28,-20.58 49.67,-20.58zm43.17 27.08c-11.05,-11.05 -26.31,-17.88 -43.17,-17.88 -16.86,0 -32.12,6.83 -43.17,17.88 -11.05,11.05 -17.88,26.31 -17.88,43.17 0,16.86 6.83,32.13 17.88,43.17 11.05,11.05 26.31,17.88 43.17,17.88 16.86,0 32.12,-6.83 43.17,-17.88 11.05,-11.05 17.88,-26.31 17.88,-43.17 0,-16.86 -6.83,-32.12 -17.88,-43.17z"/>
    <path class="fil3" d="M1122.99 630.95c0,3.93 0.42,7.85 0.62,11.73l1.76 24.48c0.26,1.73 0.04,3.59 0.4,5.16 -0.77,0.37 -1.69,0.64 -2.56,0.99l-5.27 1.98c-0.91,0.36 -1.85,0.65 -2.67,1.04 0,0.96 0.93,5.56 1.23,6.18 1.08,-0.25 8.86,-0.77 9.73,-0.77l0.15 1.7 9.26 0c0,-1.29 0.09,-0.95 0.15,-1.7 2.03,0 4.22,0.3 6.18,0.45l3.2 0.22c0.37,0.01 0.33,0.2 0.53,-0.32 0.23,-0.59 0.85,-5.02 1.2,-5.76l-10.65 -4.01c0.22,-0.45 1.08,-16.08 1.26,-17.73 0.07,-0.67 0.1,-1.79 0.22,-2.56l1.15 -19.38c0.05,-0.58 0.14,-0.55 0.16,-1.25l-0.45 -4.96c-0.43,-2.6 -1.52,-5.69 -3.57,-7.24 -2.68,-2.04 -4.68,-2.49 -7.59,-0.33 -1.16,0.86 -1.86,1.71 -2.59,2.96 -1.23,2.1 -1.86,5.75 -1.86,9.11zm16.1 30.04c1.97,0.16 16.22,2.73 19.05,3.19 0.95,0.15 2.23,0.37 3.18,0.53 0.99,0.16 2.41,0.51 3.35,0.51l2.63 -5.71 -6.78 -4.02c-1.17,-0.7 -19.71,-11.94 -20.34,-12.09l-1.08 17.6zm-44.34 -1.48c0.12,0.53 0.4,0.94 0.59,1.41l2.03 4.3 6.53 -1.04c2.79,-0.46 17.03,-2.98 18.98,-3.15l-1.08 -17.6c-0.94,0.22 -23.16,14.01 -27.05,16.07z"/>
    <path class="fil3" d="M1297.22 580.2c19.4,0 36.96,7.86 49.68,20.58 12.71,12.71 20.58,30.28 20.58,49.67 0,19.4 -7.86,36.96 -20.58,49.68 -12.71,12.71 -30.28,20.57 -49.68,20.57 -19.4,0 -36.96,-7.86 -49.67,-20.57 -12.71,-12.71 -20.57,-30.28 -20.57,-49.68 0,-19.4 7.86,-36.96 20.57,-49.67 12.71,-12.71 30.28,-20.58 49.67,-20.58zm43.17 27.08c-11.05,-11.05 -26.31,-17.88 -43.17,-17.88 -16.86,0 -32.12,6.83 -43.17,17.88 -11.05,11.05 -17.88,26.31 -17.88,43.17 0,16.86 6.83,32.13 17.88,43.17 11.05,11.05 26.32,17.88 43.17,17.88 16.86,0 32.13,-6.83 43.17,-17.88 11.05,-11.05 17.88,-26.31 17.88,-43.17 0,-16.86 -6.83,-32.12 -17.88,-43.17z"/>
    <path class="fil3" d="M1267.93 638.71l0 6.23 -6.87 3.35 0 7.19c1.86,-0.15 29.91,-11.31 32.67,-12.36 1.68,-0.65 9.46,-3.51 11.24,-3.92 -0.2,-0.85 -3.46,-5.56 -4.15,-6.87l14.86 -0.01c1.17,0 1.01,0.13 1.63,0.77 0.45,0.47 0.89,0.81 1.23,1.32 0.41,-0.2 0.87,-0.28 1.28,-0.48l-1.91 -3.83 -7.35 0c-0.39,-0.73 -1.7,-3.67 -2.24,-3.67l-17.72 0c-0.57,0 -2.36,1.07 -2.91,1.41l-8.43 4.66c-2.48,1.28 -5.98,3.46 -8.41,4.69 -0.69,0.35 -2.36,1.41 -2.92,1.54zm-14.69 22.19c0.02,0.76 0.48,2.17 0.71,2.97 1.43,5.05 1.69,5.05 1.69,10.6l77.59 0c0,-7.7 -5.43,-3.45 -5.43,-9.74 0,-7.81 8.6,-15.31 12.13,-23.31 0.27,-0.61 0.47,-1.14 0.71,-1.85 0.2,-0.61 0.35,-1.52 0.58,-1.98 -1.9,-0.04 -4.41,-0.48 -7.5,-0.48 -12.63,0 -26,3.88 -37.38,8.12l-33.02 12.64c-1.56,0.62 -3.28,1.06 -4.93,1.62 -0.72,0.24 -1.73,0.54 -2.45,0.74 -0.73,0.21 -1.94,0.66 -2.68,0.67zm69.97 -15.15c1.95,0 3.53,1.58 3.53,3.53 0,1.95 -1.58,3.53 -3.53,3.53 -1.95,0 -3.53,-1.58 -3.53,-3.53 0,-1.95 1.58,-3.53 3.53,-3.53zm-17.12 -7.68l3.35 0c-0.12,-0.53 -0.67,-1.33 -0.96,-1.76l-3.19 0c0.21,0.88 0.61,0.95 0.8,1.76zm1.76 -2.87l-1.12 -1.76 -3.35 0c1.5,2.23 0.95,1.76 4.47,1.76zm4.95 0c-0.62,-2.31 -2.38,-1.76 -4.31,-1.76 0.62,2.31 2.38,1.76 4.31,1.76zm-49.04 16.73l35.87 -14.3 -1.38 -2.06 -34.36 14.69 -0.12 1.67zm5.94 -9.8l21.78 -10.17 -0.94 -1.25 -20.76 10.28 -0.08 1.14z"/>
    <path class="fil3" d="M1629.63 580.2c19.4,0 36.96,7.86 49.67,20.58 12.71,12.71 20.58,30.28 20.58,49.67 0,19.4 -7.86,36.96 -20.58,49.68 -12.71,12.71 -30.27,20.57 -49.67,20.57 -19.4,0 -36.96,-7.86 -49.67,-20.57 -12.71,-12.71 -20.58,-30.28 -20.58,-49.68 0,-19.4 7.86,-36.96 20.58,-49.67 12.71,-12.71 30.28,-20.58 49.67,-20.58zm43.17 27.08c-11.05,-11.05 -26.31,-17.88 -43.17,-17.88 -16.86,0 -32.12,6.83 -43.17,17.88 -11.05,11.05 -17.88,26.31 -17.88,43.17 0,16.86 6.83,32.13 17.88,43.17 11.05,11.05 26.31,17.88 43.17,17.88 16.86,0 32.13,-6.83 43.17,-17.88 11.05,-11.05 17.88,-26.31 17.88,-43.17 0,-16.86 -6.83,-32.12 -17.88,-43.17z"/>
    <path class="fil3" d="M1594.74 649.7l69.79 0 0 -3.16 5.78 0 0 25.1 -5.78 0 0 -9.47 -69.79 0 0 9.47 -5.77 0 0 -42.39 5.77 0 0 20.45zm10.95 -15.46c3.3,0 5.98,2.68 5.98,5.98 0,3.3 -2.68,5.98 -5.98,5.98 -3.31,0 -5.98,-2.68 -5.98,-5.98 0,-3.31 2.68,-5.98 5.98,-5.98zm9.97 1.99l41.39 0c3.02,0 5.48,2.47 5.48,5.49l0 5.49 -46.88 0 0 -10.97z"/>
    <path class="fil3" d="M964.81 580.2c19.4,0 36.96,7.86 49.68,20.58 12.71,12.71 20.57,30.28 20.57,49.67 0,19.4 -7.86,36.96 -20.57,49.68 -12.71,12.71 -30.28,20.57 -49.68,20.57 -19.4,0 -36.96,-7.86 -49.67,-20.57 -12.71,-12.71 -20.57,-30.28 -20.57,-49.68 0,-19.4 7.86,-36.96 20.57,-49.67 12.71,-12.71 30.28,-20.58 49.67,-20.58zm43.17 27.08c-11.05,-11.05 -26.31,-17.88 -43.17,-17.88 -16.86,0 -32.12,6.83 -43.17,17.88 -11.05,11.05 -17.88,26.31 -17.88,43.17 0,16.86 6.83,32.13 17.88,43.17 11.05,11.05 26.31,17.88 43.17,17.88 16.86,0 32.13,-6.83 43.17,-17.88 11.05,-11.05 17.88,-26.31 17.88,-43.17 0,-16.86 -6.83,-32.12 -17.88,-43.17z"/>
    <path class="fil3" d="M983.87 663.51c2.13,0 3.85,1.72 3.85,3.85 0,2.13 -1.72,3.85 -3.85,3.85 -2.13,0 -3.85,-1.72 -3.85,-3.85 0,-2.12 1.72,-3.85 3.85,-3.85zm-38.12 0c2.13,0 3.85,1.72 3.85,3.85 0,2.13 -1.72,3.85 -3.85,3.85 -2.12,0 -3.85,-1.72 -3.85,-3.85 0,-2.12 1.72,-3.85 3.85,-3.85zm-0.45 -45.56l39.03 0c3.41,0 6.21,2.79 6.21,6.21l0 26.99 -51.45 0 0 -26.99c0,-3.42 2.79,-6.21 6.21,-6.21zm-2.77 -3.66l44.56 0c3.9,0 7.09,3.19 7.09,7.09l0 58.94 -6.97 0 0 6.28 -11.91 0 0 -6.28 -20.98 0 0 6.28 -11.91 0 0 -6.28 -6.97 0 0 -58.94c0,-3.9 3.19,-7.09 7.09,-7.09z"/>
    <path class="fil3" d="M1463.43 580.2c19.4,0 36.96,7.86 49.67,20.58 12.71,12.71 20.58,30.28 20.58,49.67 0,19.4 -7.87,36.96 -20.58,49.68 -12.71,12.71 -30.28,20.57 -49.67,20.57 -19.4,0 -36.96,-7.86 -49.67,-20.57 -12.71,-12.71 -20.58,-30.28 -20.58,-49.68 0,-19.4 7.86,-36.96 20.58,-49.67 12.71,-12.71 30.27,-20.58 49.67,-20.58zm43.17 27.08c-11.05,-11.05 -26.31,-17.88 -43.17,-17.88 -16.86,0 -32.13,6.83 -43.17,17.88 -11.05,11.05 -17.88,26.31 -17.88,43.17 0,16.86 6.83,32.13 17.88,43.17 11.05,11.05 26.31,17.88 43.17,17.88 16.86,0 32.12,-6.83 43.17,-17.88 11.05,-11.05 17.88,-26.31 17.88,-43.17 0,-16.86 -6.83,-32.12 -17.88,-43.17z"/>
    <path class="fil3" d="M1475.81 665.34c0.87,3.72 6.48,8.08 11.49,8.08 5.57,0 9.53,-2.41 12.09,-6.84 0.72,-1.25 0.37,-1.45 1.1,-1.45l9.91 0 0 -8.93 -2.55 0 0 -10.42 -16.5 -3.4c-0.18,-0.77 -0.51,-1.25 -0.89,-1.87 -0.38,-0.62 -0.61,-1.13 -0.95,-1.81l-4.75 -9.5c-0.27,-0.55 -0.6,-1.7 -1.28,-1.7l-35.86 0 -7.87 14.89 -20.73 3.4 0 10.42 -2.55 0 0 8.93 7.27 0c0.73,0 0.38,0.2 1.1,1.45 2.56,4.43 6.52,6.84 12.09,6.84 5.02,0 10.62,-4.36 11.49,-8.08l16.79 0c3.54,0 7.07,0 10.61,0zm-39.39 -13.07c-4.39,0 -7.95,3.56 -7.95,7.94 0,4.39 3.56,7.94 7.95,7.94 4.38,0 7.94,-3.56 7.94,-7.94 0,-4.39 -3.56,-7.94 -7.94,-7.94zm22.91 -19.28l-9.32 0 -3.93 8.89 13.25 0 0 -8.89zm28.48 19.28c4.38,0 7.94,3.56 7.94,7.94 0,4.39 -3.56,7.94 -7.94,7.94 -4.39,0 -7.94,-3.56 -7.94,-7.94 0,-4.39 3.56,-7.94 7.94,-7.94zm-22.92 -19.28l16.18 0 3.93 8.89 -20.11 0 0 -8.89z"/>
   </g>
  </g>
 </g>
</svg>
